<svg id="visual" viewBox="0 0 900 600" width="900" height="600" xmlns="http://www.w3.org/2000/svg" xmlns:xlink="http://www.w3.org/1999/xlink" version="1.1"><rect x="0" y="0" width="900" height="600" fill="#280E42"></rect><defs><linearGradient id="grad1_0" x1="33.3%" y1="100%" x2="100%" y2="0%"><stop offset="20%" stop-color="#853502" stop-opacity="1"></stop><stop offset="80%" stop-color="#853502" stop-opacity="1"></stop></linearGradient></defs><defs><linearGradient id="grad1_1" x1="33.3%" y1="100%" x2="100%" y2="0%"><stop offset="20%" stop-color="#853502" stop-opacity="1"></stop><stop offset="80%" stop-color="#7f161f" stop-opacity="1"></stop></linearGradient></defs><defs><linearGradient id="grad1_2" x1="33.3%" y1="100%" x2="100%" y2="0%"><stop offset="20%" stop-color="#6d0032" stop-opacity="1"></stop><stop offset="80%" stop-color="#7f161f" stop-opacity="1"></stop></linearGradient></defs><defs><linearGradient id="grad1_3" x1="33.3%" y1="100%" x2="100%" y2="0%"><stop offset="20%" stop-color="#6d0032" stop-opacity="1"></stop><stop offset="80%" stop-color="#4f033f" stop-opacity="1"></stop></linearGradient></defs><defs><linearGradient id="grad1_4" x1="33.3%" y1="100%" x2="100%" y2="0%"><stop offset="20%" stop-color="#280e42" stop-opacity="1"></stop><stop offset="80%" stop-color="#4f033f" stop-opacity="1"></stop></linearGradient></defs><defs><linearGradient id="grad2_0" x1="0%" y1="100%" x2="66.7%" y2="0%"><stop offset="20%" stop-color="#853502" stop-opacity="1"></stop><stop offset="80%" stop-color="#853502" stop-opacity="1"></stop></linearGradient></defs><defs><linearGradient id="grad2_1" x1="0%" y1="100%" x2="66.7%" y2="0%"><stop offset="20%" stop-color="#7f161f" stop-opacity="1"></stop><stop offset="80%" stop-color="#853502" stop-opacity="1"></stop></linearGradient></defs><defs><linearGradient id="grad2_2" x1="0%" y1="100%" x2="66.7%" y2="0%"><stop offset="20%" stop-color="#7f161f" stop-opacity="1"></stop><stop offset="80%" stop-color="#6d0032" stop-opacity="1"></stop></linearGradient></defs><defs><linearGradient id="grad2_3" x1="0%" y1="100%" x2="66.7%" y2="0%"><stop offset="20%" stop-color="#4f033f" stop-opacity="1"></stop><stop offset="80%" stop-color="#6d0032" stop-opacity="1"></stop></linearGradient></defs><defs><linearGradient id="grad2_4" x1="0%" y1="100%" x2="66.7%" y2="0%"><stop offset="20%" stop-color="#4f033f" stop-opacity="1"></stop><stop offset="80%" stop-color="#280e42" stop-opacity="1"></stop></linearGradient></defs><g transform="translate(900, 600)"><path d="M-324.5 0C-314.8 -24.3 -305.1 -48.6 -287.6 -65.6C-270.1 -82.7 -244.7 -92.6 -241.5 -116.3C-238.2 -139.9 -257.1 -177.4 -253.7 -202.3C-250.3 -227.3 -224.6 -239.7 -200.1 -251C-175.7 -262.2 -152.6 -272.2 -128 -265.8C-103.4 -259.4 -77.2 -236.7 -55.6 -243.7C-34 -250.8 -17 -287.6 0 -324.5L0 0Z" fill="#3d0942"></path><path d="M-259.6 0C-251.9 -19.4 -244.1 -38.8 -230.1 -52.5C-216.1 -66.2 -195.8 -74.1 -193.2 -93C-190.6 -112 -205.7 -141.9 -203 -161.9C-200.2 -181.8 -179.6 -191.8 -160.1 -200.8C-140.6 -209.8 -122.1 -217.7 -102.4 -212.6C-82.7 -207.5 -61.8 -189.3 -44.5 -195C-27.2 -200.6 -13.6 -230.1 0 -259.6L0 0Z" fill="#5f0039"></path><path d="M-194.7 0C-188.9 -14.6 -183.1 -29.1 -172.6 -39.4C-162 -49.6 -146.8 -55.6 -144.9 -69.8C-142.9 -84 -154.3 -106.4 -152.2 -121.4C-150.2 -136.4 -134.7 -143.8 -120.1 -150.6C-105.4 -157.3 -91.6 -163.3 -76.8 -159.5C-62 -155.6 -46.3 -142 -33.4 -146.2C-20.4 -150.5 -10.2 -172.6 0 -194.7L0 0Z" fill="#780629"></path><path d="M-129.8 0C-125.9 -9.7 -122.1 -19.4 -115 -26.3C-108 -33.1 -97.9 -37 -96.6 -46.5C-95.3 -56 -102.8 -70.9 -101.5 -80.9C-100.1 -90.9 -89.8 -95.9 -80.1 -100.4C-70.3 -104.9 -61 -108.9 -51.2 -106.3C-41.3 -103.8 -30.9 -94.7 -22.3 -97.5C-13.6 -100.3 -6.8 -115.1 0 -129.8L0 0Z" fill="#842613"></path><path d="M-64.9 0C-63 -4.9 -61 -9.7 -57.5 -13.1C-54 -16.5 -48.9 -18.5 -48.3 -23.3C-47.6 -28 -51.4 -35.5 -50.7 -40.5C-50.1 -45.5 -44.9 -47.9 -40 -50.2C-35.1 -52.4 -30.5 -54.4 -25.6 -53.2C-20.7 -51.9 -15.4 -47.3 -11.1 -48.7C-6.8 -50.2 -3.4 -57.5 0 -64.9L0 0Z" fill="#853502"></path></g><g transform="translate(0, 0)"><path d="M324.5 0C284.4 15.4 244.2 30.8 244.7 55.9C245.2 80.9 286.4 115.5 292.4 140.8C298.4 166.1 269.2 181.9 246.3 196.4C223.3 210.9 206.6 223.9 188.9 236.9C171.2 249.9 152.6 262.9 133.2 276.6C113.8 290.3 93.7 304.8 71.4 313C49.1 321.1 24.6 322.8 0 324.5L0 0Z" fill="#3d0942"></path><path d="M259.6 0C227.5 12.3 195.4 24.7 195.8 44.7C196.2 64.7 229.1 92.4 233.9 112.6C238.7 132.8 215.4 145.6 197 157.1C178.7 168.7 165.3 179.1 151.1 189.5C137 199.9 122.1 210.3 106.6 221.3C91.1 232.3 75 243.9 57.1 250.4C39.3 256.9 19.6 258.2 0 259.6L0 0Z" fill="#5f0039"></path><path d="M194.7 0C170.6 9.2 146.5 18.5 146.8 33.5C147.1 48.5 171.8 69.3 175.4 84.5C179 99.6 161.5 109.2 147.8 117.8C134 126.5 124 134.3 113.4 142.1C102.7 149.9 91.5 157.7 79.9 166C68.3 174.2 56.2 182.9 42.9 187.8C29.5 192.6 14.7 193.7 0 194.7L0 0Z" fill="#780629"></path><path d="M129.8 0C113.7 6.2 97.7 12.3 97.9 22.3C98.1 32.4 114.5 46.2 116.9 56.3C119.3 66.4 107.7 72.8 98.5 78.6C89.3 84.3 82.6 89.6 75.6 94.8C68.5 100 61 105.1 53.3 110.6C45.5 116.1 37.5 121.9 28.6 125.2C19.6 128.4 9.8 129.1 0 129.8L0 0Z" fill="#842613"></path><path d="M64.9 0C56.9 3.1 48.8 6.2 48.9 11.2C49 16.2 57.3 23.1 58.5 28.2C59.7 33.2 53.8 36.4 49.3 39.3C44.7 42.2 41.3 44.8 37.8 47.4C34.2 50 30.5 52.6 26.6 55.3C22.8 58.1 18.7 61 14.3 62.6C9.8 64.2 4.9 64.6 0 64.9L0 0Z" fill="#853502"></path></g></svg>