<svg id="visual" viewBox="0 0 900 600" width="900" height="600" xmlns="http://www.w3.org/2000/svg" xmlns:xlink="http://www.w3.org/1999/xlink" version="1.1"><rect x="0" y="0" width="900" height="600" fill="#0E0B10"></rect><defs><linearGradient id="grad1_0" x1="33.3%" y1="100%" x2="100%" y2="0%"><stop offset="20%" stop-color="#0e0b10" stop-opacity="1"></stop><stop offset="80%" stop-color="#0e0b10" stop-opacity="1"></stop></linearGradient></defs><defs><linearGradient id="grad2_0" x1="0%" y1="100%" x2="66.7%" y2="0%"><stop offset="20%" stop-color="#0e0b10" stop-opacity="1"></stop><stop offset="80%" stop-color="#0e0b10" stop-opacity="1"></stop></linearGradient></defs><g transform="translate(900, 600)"><path d="M-216.3 0C-210.8 -38.1 -205.4 -76.3 -187.3 -108.2C-169.3 -140.1 -138.8 -165.7 -105.5 -182.7C-72.2 -199.7 -36.1 -208 0 -216.3L0 0Z" fill="#25016C"></path></g><g transform="translate(0, 0)"><path d="M216.3 0C210.7 37.9 205.1 75.8 187.3 108.2C169.6 140.5 139.7 167.4 106.5 184.5C73.3 201.6 36.6 209 0 216.3L0 0Z" fill="#50220A"></path></g></svg>